<?xml version="1.0" standalone="no"?>
<!DOCTYPE svg PUBLIC "-//W3C//DTD SVG 20010904//EN"
 "http://www.w3.org/TR/2001/REC-SVG-20010904/DTD/svg10.dtd">
<svg version="1.0" xmlns="http://www.w3.org/2000/svg"
 width="80.000000pt" height="80.000000pt" viewBox="0 0 80.000000 80.000000"
 preserveAspectRatio="xMidYMid meet">

<g transform="translate(0.000000,80.000000) scale(0.100000,-0.100000)"
fill="#000000" stroke="none">
<path d="M264 765 c-19 -14 -18 -15 2 -32 24 -20 44 -54 44 -76 0 -12 -47 -49
-83 -65 -14 -7 -57 40 -57 60 0 13 -6 18 -17 16 -24 -4 -30 -38 -7 -38 10 0
30 -12 45 -26 l28 -27 -20 -38 c-11 -22 -26 -39 -35 -39 -21 0 -77 30 -87 46
-11 20 -35 17 -46 -4 -14 -26 1 -47 25 -34 26 13 109 -19 108 -42 0 -9 -1 -39
-2 -67 l-2 -52 -46 6 c-34 3 -47 1 -51 -10 -9 -22 12 -37 27 -18 14 17 80 21
80 4 0 -6 8 -27 17 -46 l17 -36 -30 -23 c-16 -13 -41 -24 -56 -24 -31 0 -39
-28 -13 -50 16 -13 35 -6 35 15 0 14 55 65 71 65 6 0 27 -12 47 -27 20 -15 39
-28 41 -30 9 -6 -31 -53 -44 -53 -18 0 -19 -12 -3 -28 18 -18 28 -14 28 11 0
12 8 32 18 44 15 20 21 21 63 12 41 -9 47 -14 53 -41 4 -22 1 -37 -11 -51 -17
-18 -17 -19 2 -33 22 -16 25 -17 45 -4 12 7 12 12 -4 28 -11 14 -16 32 -14 57
3 34 6 38 56 54 51 18 53 18 63 -1 6 -10 7 -28 4 -39 -6 -17 -3 -20 16 -17 25
3 39 28 16 28 -7 0 -19 12 -26 26 -10 22 -8 30 11 54 25 32 38 35 71 19 21
-10 21 -10 3 5 -11 9 -23 16 -27 16 -4 0 2 25 14 55 17 49 23 55 48 55 15 0
34 -7 43 -15 8 -8 19 -15 25 -15 17 0 31 34 21 51 -8 11 -13 12 -30 2 -11 -7
-35 -13 -54 -13 -33 0 -34 1 -39 48 -2 26 -7 54 -11 62 -7 17 43 53 66 48 17
-4 17 34 1 39 -7 3 -16 -4 -20 -14 -8 -20 -33 -42 -48 -43 -5 0 -25 18 -43 40
l-33 40 22 31 c12 17 32 34 45 39 29 11 30 21 5 44 -22 20 -44 13 -38 -12 4
-20 -15 -63 -36 -80 -23 -20 -96 16 -98 48 -2 24 -2 24 -6 3 -4 -21 -10 -23
-63 -23 l-58 0 -16 41 c-12 30 -14 45 -6 54 18 22 -22 38 -46 20z m190 -144
c10 -16 -5 -41 -24 -41 -19 0 -34 25 -24 41 3 5 14 9 24 9 10 0 21 -4 24 -9z
m-136 -95 c-2 -13 -10 -21 -23 -21 -23 0 -33 34 -14 45 20 13 40 -1 37 -24z
m160 -34 c3 -18 -1 -22 -22 -22 -19 0 -26 5 -26 18 0 39 43 43 48 4z m152 -38
c11 -12 10 -18 -4 -32 -16 -16 -18 -16 -31 2 -11 14 -12 23 -4 33 15 17 24 16
39 -3z m-415 -29 c0 -13 -8 -21 -22 -23 -19 -3 -23 1 -23 23 0 22 4 26 23 23
14 -2 22 -10 22 -23z m149 6 c10 -16 -5 -41 -24 -41 -19 0 -34 25 -24 41 3 5
14 9 24 9 10 0 21 -4 24 -9z m136 -96 c0 -18 -5 -25 -19 -25 -11 0 -23 5 -26
10 -11 18 3 40 25 40 15 0 20 -7 20 -25z m-203 -49 c-9 -22 -34 -20 -47 3 -8
16 -6 22 7 30 22 12 49 -10 40 -33z m293 -6 c0 -24 -26 -38 -42 -22 -16 16 -2
42 22 42 13 0 20 -7 20 -20z m-166 -66 c8 -21 -1 -34 -24 -34 -22 0 -34 15
-26 35 7 20 42 19 50 -1z"/>
<path d="M451 758 c2 -25 17 -63 18 -46 1 9 6 18 13 20 16 6 2 38 -17 38 -8 0
-15 -6 -14 -12z"/>
<path d="M704 205 c9 -7 16 -18 16 -24 0 -18 34 -8 38 10 2 12 -6 18 -34 21
-29 3 -33 2 -20 -7z"/>
</g>
</svg>
